<svg xmlns="http://www.w3.org/2000/svg" xmlns:xlink="http://www.w3.org/1999/xlink" width="500" zoomAndPan="magnify" viewBox="0 0 375 374.999991" height="500" preserveAspectRatio="xMidYMid meet" version="1.0"><defs><g/><clipPath id="118a85113d"><path d="M 170 97 L 324 97 L 324 234 L 170 234 Z M 170 97 " clip-rule="nonzero"/></clipPath><clipPath id="768596537e"><path d="M 211.847656 296.707031 L 129.894531 169.53125 L 241.175781 97.824219 L 323.125 225 Z M 211.847656 296.707031 " clip-rule="nonzero"/></clipPath><clipPath id="4b0a5ce112"><path d="M 170.871094 233.121094 L 241.175781 97.824219 L 323.125 225 L 170.871094 233.121094 " clip-rule="nonzero"/></clipPath></defs><g fill="#000000" fill-opacity="1"><g transform="translate(18.466692, 277.290781)"><g><path d="M 142.984375 -261.609375 C 141.910156 -256.898438 140.304688 -252.675781 138.171875 -248.9375 C 136.035156 -245.195312 134.21875 -241.191406 132.71875 -236.921875 C 119.257812 -208.921875 107.078125 -179.957031 96.171875 -150.03125 C 85.273438 -120.113281 74.378906 -89.976562 63.484375 -59.625 C 65.398438 -60.90625 67.210938 -62.347656 68.921875 -63.953125 C 70.640625 -65.554688 72.351562 -67.210938 74.0625 -68.921875 C 87.09375 -82.171875 99.59375 -95.472656 111.5625 -108.828125 C 123.53125 -122.191406 135.445312 -135.285156 147.3125 -148.109375 C 159.175781 -160.929688 171.304688 -173.488281 183.703125 -185.78125 C 196.097656 -198.070312 209.347656 -209.664062 223.453125 -220.5625 C 223.878906 -221.414062 224.679688 -222.320312 225.859375 -223.28125 C 227.035156 -224.25 228.316406 -224.945312 229.703125 -225.375 C 231.097656 -225.800781 232.378906 -225.90625 233.546875 -225.6875 C 234.722656 -225.476562 235.632812 -224.628906 236.28125 -223.140625 C 236.28125 -221.210938 235.582031 -220.085938 234.1875 -219.765625 C 232.800781 -219.441406 231.570312 -218.851562 230.5 -218 C 214.257812 -205.601562 199.03125 -192.242188 184.8125 -177.921875 C 170.601562 -163.609375 156.660156 -148.96875 142.984375 -134 C 129.304688 -119.039062 115.628906 -104.082031 101.953125 -89.125 C 88.273438 -74.164062 73.953125 -59.953125 58.984375 -46.484375 C 58.554688 -44.773438 58.019531 -43.117188 57.375 -41.515625 C 56.738281 -39.910156 56.101562 -38.253906 55.46875 -36.546875 C 65.082031 -34.191406 74.375 -33.226562 83.34375 -33.65625 C 92.320312 -34.082031 100.925781 -35.257812 109.15625 -37.1875 C 117.382812 -39.113281 125.238281 -41.570312 132.71875 -44.5625 C 140.207031 -47.550781 147.15625 -50.546875 153.5625 -53.546875 C 167.664062 -59.742188 180.703125 -66.953125 192.671875 -75.171875 C 204.640625 -83.398438 215.222656 -92.859375 224.421875 -103.546875 C 225.054688 -103.972656 225.691406 -104.613281 226.328125 -105.46875 C 226.972656 -106.320312 227.832031 -106.429688 228.90625 -105.796875 C 229.539062 -104.722656 229.429688 -103.757812 228.578125 -102.90625 C 227.722656 -102.050781 227.082031 -101.410156 226.65625 -100.984375 C 222.382812 -95.859375 217.84375 -91.101562 213.03125 -86.71875 C 208.226562 -82.34375 203.046875 -78.125 197.484375 -74.0625 C 187.867188 -67.21875 177.128906 -60.644531 165.265625 -54.34375 C 153.398438 -48.039062 141.160156 -42.695312 128.546875 -38.3125 C 115.941406 -33.925781 103.28125 -30.984375 90.5625 -29.484375 C 77.851562 -27.992188 65.832031 -28.851562 54.5 -32.0625 C 48.09375 -13.675781 41.570312 4.539062 34.9375 22.59375 C 28.3125 40.65625 22.4375 59.625 17.3125 79.5 C 17.3125 80.570312 17.628906 81.269531 18.265625 81.59375 C 18.910156 81.914062 19.128906 82.609375 18.921875 83.671875 C 18.492188 84.953125 18.007812 86.234375 17.46875 87.515625 C 16.9375 88.804688 15.816406 89.453125 14.109375 89.453125 C 12.609375 89.453125 11.644531 88.753906 11.21875 87.359375 C 10.789062 85.972656 10.628906 84.425781 10.734375 82.71875 C 10.847656 81.007812 11.117188 79.351562 11.546875 77.75 C 11.972656 76.144531 12.289062 74.914062 12.5 74.0625 C 17.207031 55.25 22.816406 36.972656 29.328125 19.234375 C 35.847656 1.492188 42.207031 -15.921875 48.40625 -33.015625 C 46.0625 -34.515625 44.03125 -34.566406 42.3125 -33.171875 C 40.601562 -31.785156 38.894531 -30.5625 37.1875 -29.5 C 33.550781 -27.144531 29.597656 -25.003906 25.328125 -23.078125 C 21.054688 -21.160156 16.140625 -20.414062 10.578125 -20.84375 C 9.941406 -21.269531 9.300781 -21.585938 8.65625 -21.796875 C 8.007812 -22.015625 7.472656 -22.335938 7.046875 -22.765625 C 5.984375 -23.828125 5.128906 -25.535156 4.484375 -27.890625 C 4.703125 -32.160156 6.039062 -35.414062 8.5 -37.65625 C 10.957031 -39.90625 13.945312 -41.347656 17.46875 -41.984375 C 21 -42.628906 24.847656 -42.6875 29.015625 -42.15625 C 33.179688 -41.625 37.082031 -40.820312 40.71875 -39.75 C 43.707031 -41.457031 46.320312 -43.328125 48.5625 -45.359375 C 50.8125 -47.390625 53.113281 -49.472656 55.46875 -51.609375 C 68.289062 -85.804688 80.84375 -119.789062 93.125 -153.5625 C 105.414062 -187.332031 118.613281 -220.566406 132.71875 -253.265625 C 133.363281 -258.828125 135.289062 -262.460938 138.5 -264.171875 C 139.5625 -264.597656 140.46875 -264.488281 141.21875 -263.84375 C 141.96875 -263.207031 142.554688 -262.460938 142.984375 -261.609375 Z M 48.734375 -37.828125 C 48.941406 -37.828125 49.148438 -37.773438 49.359375 -37.671875 C 49.578125 -37.566406 49.898438 -37.515625 50.328125 -37.515625 C 50.117188 -37.941406 50.226562 -38.3125 50.65625 -38.625 C 51.082031 -38.945312 51.082031 -39.320312 50.65625 -39.75 C 50.226562 -39.320312 49.851562 -39 49.53125 -38.78125 C 49.207031 -38.570312 48.941406 -38.253906 48.734375 -37.828125 Z M 9.296875 -26.609375 C 10.367188 -25.535156 12.1875 -25 14.75 -25 C 19.019531 -25.425781 22.972656 -26.921875 26.609375 -29.484375 C 30.242188 -32.054688 33.554688 -34.304688 36.546875 -36.234375 C 33.984375 -37.085938 30.988281 -37.671875 27.5625 -37.984375 C 24.144531 -38.304688 20.992188 -38.203125 18.109375 -37.671875 C 15.222656 -37.140625 12.867188 -36.015625 11.046875 -34.296875 C 9.234375 -32.585938 8.648438 -30.023438 9.296875 -26.609375 Z M 9.296875 -26.609375 "/></g></g></g><g clip-path="url(#118a85113d)"><g clip-path="url(#768596537e)"><g clip-path="url(#4b0a5ce112)"><path fill="#ffffff" d="M 211.847656 296.707031 L 129.894531 169.53125 L 241.175781 97.824219 L 323.125 225 Z M 211.847656 296.707031 " fill-opacity="1" fill-rule="nonzero"/></g></g></g><g fill="#000000" fill-opacity="1"><g transform="translate(189.153543, 232.927458)"><g><path d="M 35.875 -30.234375 C 35.96875 -29.660156 35.851562 -29.09375 35.53125 -28.53125 C 31.132812 -23.445312 27.394531 -19.257812 24.3125 -15.96875 C 21.226562 -12.6875 18.769531 -10.203125 16.9375 -8.515625 C 8.21875 -0.453125 -0.0703125 4.300781 -7.9375 5.75 C -14.664062 6.8125 -18.628906 3.890625 -19.828125 -3.015625 C -20.503906 -7.304688 -18.804688 -12.722656 -14.734375 -19.265625 C -10.242188 -25.671875 -6.195312 -29.160156 -2.59375 -29.734375 C -1.320312 -29.929688 -0.117188 -29.617188 1.015625 -28.796875 C 2.210938 -28.085938 2.894531 -27.195312 3.0625 -26.125 C 3.207031 -25.238281 3.171875 -24.378906 2.953125 -23.546875 C 2.734375 -22.722656 2.175781 -21.6875 1.28125 -20.4375 C 0.457031 -19.320312 -0.316406 -18.378906 -1.046875 -17.609375 C -1.773438 -16.835938 -2.617188 -15.976562 -3.578125 -15.03125 C -4.941406 -13.613281 -6.429688 -12.148438 -8.046875 -10.640625 C -9.660156 -9.140625 -11.546875 -7.617188 -13.703125 -6.078125 C -13.429688 -3.722656 -12.144531 -1.925781 -9.84375 -0.6875 C -8.019531 0.113281 -6.132812 0.359375 -4.1875 0.046875 C 0.875 -0.742188 7.914062 -5.203125 16.9375 -13.328125 C 17.800781 -14.148438 19.65625 -15.984375 22.5 -18.828125 C 25.351562 -21.679688 29.226562 -25.644531 34.125 -30.71875 C 34.414062 -30.851562 34.753906 -30.953125 35.140625 -31.015625 C 35.429688 -31.066406 35.675781 -30.804688 35.875 -30.234375 Z M -3.09375 -23.484375 C -3.21875 -24.273438 -3.914062 -24.570312 -5.1875 -24.375 C -5.875 -24.257812 -6.742188 -23.742188 -7.796875 -22.828125 C -8.847656 -21.910156 -9.9375 -20.5625 -11.0625 -18.78125 C -11.875 -17.550781 -12.5625 -16.195312 -13.125 -14.71875 C -13.6875 -13.238281 -13.984375 -11.945312 -14.015625 -10.84375 C -13.816406 -10.875 -13.4375 -11.023438 -12.875 -11.296875 C -12.320312 -11.578125 -11.828125 -11.910156 -11.390625 -12.296875 C -9.078125 -14.054688 -7.0625 -16.019531 -5.34375 -18.1875 C -3.632812 -20.363281 -2.882812 -22.128906 -3.09375 -23.484375 Z M -3.09375 -23.484375 "/></g></g></g><g fill="#000000" fill-opacity="1"><g transform="translate(222.50686, 227.665903)"><g><path d="M 52.34375 -103.453125 C 53.65625 -95.160156 48.367188 -82.132812 36.484375 -64.375 C 29.015625 -53.394531 20.414062 -42.296875 10.6875 -31.078125 C 7.445312 -27.566406 3.960938 -23.816406 0.234375 -19.828125 C -3.484375 -15.847656 -7.628906 -11.597656 -12.203125 -7.078125 C -11.796875 -5.035156 -9.835938 -3.394531 -6.328125 -2.15625 C -3.253906 -1.03125 0.179688 -0.765625 3.984375 -1.359375 C 11.203125 -2.503906 19.140625 -7.007812 27.796875 -14.875 L 44.703125 -32.234375 C 44.953125 -32.472656 45.328125 -32.628906 45.828125 -32.703125 C 46.109375 -32.753906 46.296875 -32.488281 46.390625 -31.90625 C 46.492188 -31.226562 46.4375 -30.664062 46.21875 -30.21875 C 42.394531 -25.925781 38.9375 -22.160156 35.84375 -18.921875 C 32.757812 -15.679688 29.941406 -12.96875 27.390625 -10.78125 C 18.222656 -3.019531 9.742188 1.519531 1.953125 2.84375 C -11.304688 4.9375 -18.859375 0.78125 -20.703125 -9.625 C -22.148438 -18.789062 -19.164062 -31.5625 -11.75 -47.9375 C -4.5625 -63.15625 4.269531 -76.835938 14.75 -88.984375 C 25.613281 -101.785156 34.992188 -108.8125 42.890625 -110.0625 C 45.242188 -110.425781 47.320312 -109.957031 49.125 -108.65625 C 50.914062 -107.4375 51.988281 -105.703125 52.34375 -103.453125 Z M 45.859375 -100.78125 C 45.242188 -104.675781 42.484375 -106.039062 37.578125 -104.875 C 34.867188 -104.257812 31.75 -102.492188 28.21875 -99.578125 C 24.6875 -96.671875 20.65625 -92.460938 16.125 -86.953125 C 11.539062 -81.734375 7.492188 -76.472656 3.984375 -71.171875 C 0.472656 -65.867188 -2.59375 -60.460938 -5.21875 -54.953125 C -8.664062 -47.710938 -11.257812 -39.753906 -13 -31.078125 C -14.382812 -23.960938 -14.875 -18.191406 -14.46875 -13.765625 C -14.269531 -12.492188 -13.863281 -11.503906 -13.25 -10.796875 C -10.8125 -12.484375 -5.71875 -17.585938 2.03125 -26.109375 C 11.1875 -36.453125 19.476562 -46.609375 26.90625 -56.578125 C 34.082031 -66.191406 39.007812 -73.910156 41.6875 -79.734375 C 45.4375 -87.617188 46.828125 -94.632812 45.859375 -100.78125 Z M 45.859375 -100.78125 "/></g></g></g><g fill="#000000" fill-opacity="1"><g transform="translate(266.392799, 220.742805)"><g><path d="M 52.34375 -103.453125 C 53.65625 -95.160156 48.367188 -82.132812 36.484375 -64.375 C 29.015625 -53.394531 20.414062 -42.296875 10.6875 -31.078125 C 7.445312 -27.566406 3.960938 -23.816406 0.234375 -19.828125 C -3.484375 -15.847656 -7.628906 -11.597656 -12.203125 -7.078125 C -11.796875 -5.035156 -9.835938 -3.394531 -6.328125 -2.15625 C -3.253906 -1.03125 0.179688 -0.765625 3.984375 -1.359375 C 11.203125 -2.503906 19.140625 -7.007812 27.796875 -14.875 L 44.703125 -32.234375 C 44.953125 -32.472656 45.328125 -32.628906 45.828125 -32.703125 C 46.109375 -32.753906 46.296875 -32.488281 46.390625 -31.90625 C 46.492188 -31.226562 46.4375 -30.664062 46.21875 -30.21875 C 42.394531 -25.925781 38.9375 -22.160156 35.84375 -18.921875 C 32.757812 -15.679688 29.941406 -12.96875 27.390625 -10.78125 C 18.222656 -3.019531 9.742188 1.519531 1.953125 2.84375 C -11.304688 4.9375 -18.859375 0.78125 -20.703125 -9.625 C -22.148438 -18.789062 -19.164062 -31.5625 -11.75 -47.9375 C -4.5625 -63.15625 4.269531 -76.835938 14.75 -88.984375 C 25.613281 -101.785156 34.992188 -108.8125 42.890625 -110.0625 C 45.242188 -110.425781 47.320312 -109.957031 49.125 -108.65625 C 50.914062 -107.4375 51.988281 -105.703125 52.34375 -103.453125 Z M 45.859375 -100.78125 C 45.242188 -104.675781 42.484375 -106.039062 37.578125 -104.875 C 34.867188 -104.257812 31.75 -102.492188 28.21875 -99.578125 C 24.6875 -96.671875 20.65625 -92.460938 16.125 -86.953125 C 11.539062 -81.734375 7.492188 -76.472656 3.984375 -71.171875 C 0.472656 -65.867188 -2.59375 -60.460938 -5.21875 -54.953125 C -8.664062 -47.710938 -11.257812 -39.753906 -13 -31.078125 C -14.382812 -23.960938 -14.875 -18.191406 -14.46875 -13.765625 C -14.269531 -12.492188 -13.863281 -11.503906 -13.25 -10.796875 C -10.8125 -12.484375 -5.71875 -17.585938 2.03125 -26.109375 C 11.1875 -36.453125 19.476562 -46.609375 26.90625 -56.578125 C 34.082031 -66.191406 39.007812 -73.910156 41.6875 -79.734375 C 45.4375 -87.617188 46.828125 -94.632812 45.859375 -100.78125 Z M 45.859375 -100.78125 "/></g></g></g><g fill="#000000" fill-opacity="1"><g transform="translate(310.278739, 213.819707)"><g><path d="M 35.875 -30.234375 C 35.96875 -29.660156 35.851562 -29.09375 35.53125 -28.53125 C 31.132812 -23.445312 27.394531 -19.257812 24.3125 -15.96875 C 21.226562 -12.6875 18.769531 -10.203125 16.9375 -8.515625 C 8.21875 -0.453125 -0.0703125 4.300781 -7.9375 5.75 C -14.664062 6.8125 -18.628906 3.890625 -19.828125 -3.015625 C -20.503906 -7.304688 -18.804688 -12.722656 -14.734375 -19.265625 C -10.242188 -25.671875 -6.195312 -29.160156 -2.59375 -29.734375 C -1.320312 -29.929688 -0.117188 -29.617188 1.015625 -28.796875 C 2.210938 -28.085938 2.894531 -27.195312 3.0625 -26.125 C 3.207031 -25.238281 3.171875 -24.378906 2.953125 -23.546875 C 2.734375 -22.722656 2.175781 -21.6875 1.28125 -20.4375 C 0.457031 -19.320312 -0.316406 -18.378906 -1.046875 -17.609375 C -1.773438 -16.835938 -2.617188 -15.976562 -3.578125 -15.03125 C -4.941406 -13.613281 -6.429688 -12.148438 -8.046875 -10.640625 C -9.660156 -9.140625 -11.546875 -7.617188 -13.703125 -6.078125 C -13.429688 -3.722656 -12.144531 -1.925781 -9.84375 -0.6875 C -8.019531 0.113281 -6.132812 0.359375 -4.1875 0.046875 C 0.875 -0.742188 7.914062 -5.203125 16.9375 -13.328125 C 17.800781 -14.148438 19.65625 -15.984375 22.5 -18.828125 C 25.351562 -21.679688 29.226562 -25.644531 34.125 -30.71875 C 34.414062 -30.851562 34.753906 -30.953125 35.140625 -31.015625 C 35.429688 -31.066406 35.675781 -30.804688 35.875 -30.234375 Z M -3.09375 -23.484375 C -3.21875 -24.273438 -3.914062 -24.570312 -5.1875 -24.375 C -5.875 -24.257812 -6.742188 -23.742188 -7.796875 -22.828125 C -8.847656 -21.910156 -9.9375 -20.5625 -11.0625 -18.78125 C -11.875 -17.550781 -12.5625 -16.195312 -13.125 -14.71875 C -13.6875 -13.238281 -13.984375 -11.945312 -14.015625 -10.84375 C -13.816406 -10.875 -13.4375 -11.023438 -12.875 -11.296875 C -12.320312 -11.578125 -11.828125 -11.910156 -11.390625 -12.296875 C -9.078125 -14.054688 -7.0625 -16.019531 -5.34375 -18.1875 C -3.632812 -20.363281 -2.882812 -22.128906 -3.09375 -23.484375 Z M -3.09375 -23.484375 "/></g></g></g></svg>